<?xml version="1.0" encoding="UTF-8" standalone="no"?>
<svg width="537px" height="114px" viewBox="0 0 537 114" version="1.1" xmlns="http://www.w3.org/2000/svg" xmlns:xlink="http://www.w3.org/1999/xlink" xmlns:sketch="http://www.bohemiancoding.com/sketch/ns">
    <!-- Generator: Sketch 3.2.2 (9983) - http://www.bohemiancoding.com/sketch -->
    <title>Brand</title>
    <desc>Created with Sketch.</desc>
    <defs></defs>
    <g id="Page-1" stroke="none" stroke-width="1" fill="none" fill-rule="evenodd" sketch:type="MSPage">
        <g id="Logo-white" sketch:type="MSLayerGroup" transform="translate(4.000000, 4.000000)">
            <g id="Logo-2" transform="translate(121.359331, 0.000000)" sketch:type="MSShapeGroup">
                <rect id="Rectangle-3" stroke="#000000" stroke-width="4" fill="#FFFFFF" x="0" y="0" width="407.632312" height="106"></rect>
                <path d="M66.359926,34.3410526 C66.359926,28.2953978 62.0053635,24.4058857 55.1141626,24.4058857 L43.4456261,24.4058857 L43.4456261,54 L48.6457347,54 L48.6457347,44.4876061 L54.5222803,44.4876061 C61.0329854,44.4876061 66.359926,41.020867 66.359926,34.3410526 L66.359926,34.3410526 Z M61.0752628,34.4678846 C61.0752628,37.6386825 58.623179,39.7948251 54.6913895,39.7948251 L48.6457347,39.7948251 L48.6457347,29.140944 L54.6913895,29.140944 C58.5809017,29.140944 61.0752628,30.9588681 61.0752628,34.4678846 L61.0752628,34.4678846 Z M87.53184,24.1944992 L82.7122271,24.1944992 L69.6908168,54 L75.0177574,54 L78.0617234,46.8551353 L92.0555118,46.8551353 L95.0572005,54 L100.55325,54 L87.53184,24.1944992 Z M90.153033,42.2469089 L79.9642022,42.2469089 L85.0374789,30.4092632 L90.153033,42.2469089 Z M135.888062,39.1606655 C135.888062,30.7897589 129.461911,24.4058857 120.160904,24.4058857 L109.126527,24.4058857 L109.126527,54 L120.160904,54 C129.461911,54 135.888062,47.5315722 135.888062,39.1606655 L135.888062,39.1606655 Z M130.434289,39.2452201 C130.434289,45.0794884 126.375668,49.2649417 120.160904,49.2649417 L114.326636,49.2649417 L114.326636,29.140944 L120.160904,29.140944 C126.375668,29.140944 130.434289,33.4109519 130.434289,39.2452201 L130.434289,39.2452201 Z M172.448915,39.1606655 C172.448915,30.7897589 166.022765,24.4058857 156.721757,24.4058857 L145.68738,24.4058857 L145.68738,54 L156.721757,54 C166.022765,54 172.448915,47.5315722 172.448915,39.1606655 L172.448915,39.1606655 Z M166.995143,39.2452201 C166.995143,45.0794884 162.936521,49.2649417 156.721757,49.2649417 L150.887489,49.2649417 L150.887489,29.140944 L156.721757,29.140944 C162.936521,29.140944 166.995143,33.4109519 166.995143,39.2452201 L166.995143,39.2452201 Z M193.45172,42.2046316 L205.204811,24.4058857 L199.243711,24.4058857 L190.872804,37.5118506 L182.586452,24.4058857 L176.456243,24.4058857 L188.209334,42.3314635 L188.209334,54 L193.45172,54 L193.45172,42.2046316 Z M255.200832,49.2649417 L251.860924,45.8827572 C249.324286,48.2502864 246.999034,49.7299921 243.363186,49.7299921 C237.698027,49.7299921 233.597128,44.9949338 233.597128,39.1606655 C233.597128,33.3263973 237.698027,28.6758936 243.363186,28.6758936 C246.74537,28.6758936 249.282009,30.1555993 251.649538,32.3540192 L254.989445,28.5067844 C252.156865,25.8010368 248.859236,23.898558 243.405463,23.898558 C234.442674,23.898558 228.143356,30.7897589 228.143356,39.2452201 C228.143356,47.785236 234.569506,54.5073277 243.194077,54.5073277 C248.732404,54.5073277 252.114588,52.478017 255.200832,49.2649417 L255.200832,49.2649417 Z M292.94545,39.1606655 C292.94545,30.7897589 286.603854,23.898558 277.514233,23.898558 C268.424612,23.898558 261.998461,30.8743135 261.998461,39.2452201 C261.998461,47.6161268 268.340057,54.5073277 277.429678,54.5073277 C286.519299,54.5073277 292.94545,47.5315722 292.94545,39.1606655 L292.94545,39.1606655 Z M287.491677,39.2452201 C287.491677,45.0372111 283.390778,49.7299921 277.514233,49.7299921 C271.637687,49.7299921 267.452234,44.9526565 267.452234,39.1606655 C267.452234,33.3686746 271.553133,28.6758936 277.429678,28.6758936 C283.306224,28.6758936 287.491677,33.4532292 287.491677,39.2452201 L287.491677,39.2452201 Z M302.744768,54 L323.502925,54 L323.502925,49.2649417 L307.944877,49.2649417 L307.944877,24.4058857 L302.744768,24.4058857 L302.744768,54 Z M354.356343,24.4058857 L332.414421,24.4058857 L332.414421,54 L354.567729,54 L354.567729,49.3494963 L337.614529,49.3494963 L337.614529,41.4013628 L352.453864,41.4013628 L352.453864,36.7508591 L337.614529,36.7508591 L337.614529,29.0563894 L354.356343,29.0563894 L354.356343,24.4058857 Z" id="PADDY-COLE" fill="#000000"></path>
                <path d="M55.1980611,75.9632 L55.1980611,67.7718519 L54.141113,67.7718519 L54.141113,76.0851556 C54.141113,79.520237 52.2914537,81.2682667 49.4051722,81.2682667 C46.3969352,81.2682667 44.5879278,79.3373037 44.5879278,75.9835259 L44.5879278,67.7718519 L43.5309796,67.7718519 L43.5309796,76.0851556 C43.5309796,80.069037 45.9497648,82.2235852 49.3645204,82.2235852 C52.8199278,82.2235852 55.1980611,80.0487111 55.1980611,75.9632 L55.1980611,75.9632 Z M70.5238093,82 L64.8732019,74.7233185 L70.32055,67.7718519 L69.0806685,67.7718519 L64.2430982,74.032237 L59.3852019,67.7718519 L58.1249945,67.7718519 L63.5926685,74.7436444 L57.9217352,82 L59.1616167,82 L64.2024463,75.4347259 L69.2636019,82 L70.5238093,82 Z M91.1342982,81.5934815 L88.5122538,78.8901333 C89.2846389,77.8535111 89.9757204,76.5729778 90.6261501,75.1095111 L89.6708315,74.7233185 C89.1220315,76.0241778 88.5122538,77.2030815 87.8211723,78.1787259 L84.0812019,74.3371259 C86.256076,73.5850667 87.5772612,72.4468148 87.5772612,70.6378074 C87.5772612,68.9101037 86.1544464,67.5279407 84.3047871,67.5279407 C82.2315426,67.5279407 80.7477501,68.9304296 80.7477501,70.7800889 C80.7477501,71.9793185 81.2558982,72.8533333 82.3331723,74.052563 C80.0160167,74.9062519 78.6541797,76.3087407 78.6541797,78.2397037 C78.6541797,80.5975111 80.5241649,82.2032593 83.0242538,82.2032593 C84.9348908,82.2032593 86.4999871,81.3089185 87.8414982,79.7438222 L90.3009352,82.284563 L91.1342982,81.5934815 Z M86.520313,70.6784593 C86.520313,72.0606222 85.4836908,73.0362667 83.4510982,73.6866963 C82.1908908,72.3451852 81.8046982,71.6541037 81.8046982,70.739437 C81.8046982,69.4385778 82.8209945,68.4222815 84.2641352,68.4222815 C85.5446686,68.4222815 86.520313,69.3979259 86.520313,70.6784593 L86.520313,70.6784593 Z M87.1707426,79.0527407 C85.9918389,80.4349037 84.6300019,81.2885926 83.0445797,81.2885926 C81.0932908,81.2885926 79.7111278,79.9470815 79.7111278,78.1990519 C79.7111278,76.796563 80.7070982,75.4753778 82.963276,74.7029926 L87.1707426,79.0527407 Z M101.215957,82 L101.215957,67.7718519 L100.159009,67.7718519 L100.159009,82 L101.215957,82 Z M117.41572,82 L117.41572,67.7718519 L116.399424,67.7718519 L116.399424,80.1503407 L106.582002,67.7718519 L105.586032,67.7718519 L105.586032,82 L106.602328,82 L106.602328,69.3572741 L116.623009,82 L117.41572,82 Z M131.603217,68.7474963 L131.603217,67.7718519 L120.627217,67.7718519 L120.627217,68.7474963 L125.586743,68.7474963 L125.586743,82 L126.643691,82 L126.643691,68.7474963 L131.603217,68.7474963 Z M145.038654,82 L145.038654,81.0243556 L135.871661,81.0243556 L135.871661,75.3127704 L144.022358,75.3127704 L144.022358,74.3371259 L135.871661,74.3371259 L135.871661,68.7474963 L144.937024,68.7474963 L144.937024,67.7718519 L134.814713,67.7718519 L134.814713,82 L145.038654,82 Z M160.018861,82 L155.323572,75.9225481 C157.722032,75.5973333 159.490387,74.2354963 159.490387,71.857363 L159.490387,71.8167111 C159.490387,69.4385778 157.478121,67.7718519 154.408906,67.7718519 L148.433083,67.7718519 L148.433083,82 L149.490032,82 L149.490032,76.1054815 L154.144669,76.1054815 L158.67735,82 L160.018861,82 Z M158.433439,71.8980148 C158.433439,73.9509333 156.665083,75.150163 154.28695,75.150163 L149.490032,75.150163 L149.490032,68.7474963 L154.347928,68.7474963 C156.929321,68.7474963 158.433439,69.9467259 158.433439,71.857363 L158.433439,71.8980148 Z M176.177972,82 L169.551721,67.6702222 L168.535424,67.6702222 L161.909172,82 L163.006772,82 L164.81578,78.0161185 L173.210387,78.0161185 L175.019395,82 L176.177972,82 Z M172.763217,77.0608 L165.26295,77.0608 L169.023246,68.8288 L172.763217,77.0608 Z M190.467098,79.7641481 L189.755691,79.0730667 C188.31255,80.4958815 186.910061,81.2885926 184.857143,81.2885926 C181.462713,81.2885926 178.840669,78.4836148 178.840669,74.8859259 L178.840669,74.8452741 C178.840669,71.2679111 181.422061,68.4832593 184.836817,68.4832593 C186.971039,68.4832593 188.393854,69.3776 189.633735,70.5768296 L190.385795,69.8044444 C188.922328,68.4629333 187.397884,67.5279407 184.857143,67.5279407 C180.751306,67.5279407 177.743069,70.8613926 177.743069,74.8859259 L177.743069,74.9265778 C177.743069,79.0120889 180.751306,82.2439111 184.816491,82.2439111 C187.336906,82.2439111 188.96298,81.2479407 190.467098,79.7641481 L190.467098,79.7641481 Z M203.333409,68.7474963 L203.333409,67.7718519 L192.357409,67.7718519 L192.357409,68.7474963 L197.316935,68.7474963 L197.316935,82 L198.373884,82 L198.373884,68.7474963 L203.333409,68.7474963 Z M207.744135,82 L207.744135,67.7718519 L206.687187,67.7718519 L206.687187,82 L207.744135,82 Z M225.793558,74.8859259 C225.813884,74.8656 225.813884,74.8656 225.793558,74.8452741 C225.793558,70.9630222 222.968254,67.5279407 218.659158,67.5279407 C214.350061,67.5279407 211.484106,71.0036741 211.484106,74.8859259 L211.484106,74.9265778 C211.484106,78.8088296 214.309409,82.2439111 218.618506,82.2439111 C222.927602,82.2439111 225.793558,78.7681778 225.793558,74.8859259 L225.793558,74.8859259 Z M224.695958,74.9265778 C224.695958,78.442963 222.175543,81.2885926 218.659158,81.2885926 C215.142772,81.2885926 212.581706,78.4023111 212.581706,74.8859259 L212.581706,74.8452741 C212.581706,71.3288889 215.102121,68.4832593 218.618506,68.4832593 C222.134891,68.4832593 224.695958,71.3695407 224.695958,74.8859259 L224.695958,74.9265778 Z M241.220935,82 L241.220935,67.7718519 L240.204639,67.7718519 L240.204639,80.1503407 L230.387217,67.7718519 L229.391247,67.7718519 L229.391247,82 L230.407543,82 L230.407543,69.3572741 L240.428224,82 L241.220935,82 Z M263.843691,74.8859259 L263.843691,74.8452741 C263.843691,70.8410667 260.75415,67.7718519 256.282447,67.7718519 L251.546506,67.7718519 L251.546506,82 L256.282447,82 C260.75415,82 263.843691,78.8901333 263.843691,74.8859259 L263.843691,74.8859259 Z M262.746091,74.9265778 C262.746091,78.3210074 260.246002,81.0243556 256.282447,81.0243556 L252.603454,81.0243556 L252.603454,68.7474963 L256.282447,68.7474963 C260.246002,68.7474963 262.746091,71.5118222 262.746091,74.8859259 L262.746091,74.9265778 Z M277.665321,82 L277.665321,81.0243556 L268.498328,81.0243556 L268.498328,75.3127704 L276.649024,75.3127704 L276.649024,74.3371259 L268.498328,74.3371259 L268.498328,68.7474963 L277.563691,68.7474963 L277.563691,67.7718519 L267.44138,67.7718519 L267.44138,82 L277.665321,82 Z M290.59261,78.3210074 L290.59261,78.2803556 C290.59261,76.2071111 289.210447,75.0282074 285.917647,74.3574519 C282.543543,73.6663704 281.771158,72.7517037 281.771158,71.2475852 L281.771158,71.2069333 C281.771158,69.7231407 283.153321,68.5239111 285.246891,68.5239111 C286.811987,68.5239111 288.153498,68.9710815 289.49501,70.1296593 L290.165765,69.2962963 C288.722624,68.1377185 287.360787,67.5685926 285.287543,67.5685926 C282.645173,67.5685926 280.71421,69.1946667 280.71421,71.308563 L280.71421,71.3492148 C280.71421,73.503763 282.096373,74.6623407 285.511128,75.3534222 C288.74295,76.0038519 289.535661,76.8778667 289.535661,78.3819852 L289.535661,78.422637 C289.535661,80.0487111 288.072195,81.2479407 285.937973,81.2479407 C283.844402,81.2479407 282.401261,80.5771852 280.836165,79.1340444 L280.145084,79.9267556 C281.852461,81.4512 283.600491,82.2032593 285.876995,82.2032593 C288.620995,82.2032593 290.59261,80.617837 290.59261,78.3210074 L290.59261,78.3210074 Z M295.267573,82 L295.267573,67.7718519 L294.210624,67.7718519 L294.210624,82 L295.267573,82 Z M311.751898,80.1096889 L311.751898,74.6216889 L305.979336,74.6216889 L305.979336,75.5973333 L310.735602,75.5973333 L310.735602,79.6828444 C309.69898,80.5568593 308.011928,81.3089185 306.202921,81.3089185 C302.401973,81.3089185 300.105143,78.5649185 300.105143,74.8859259 L300.105143,74.8452741 C300.105143,71.4101926 302.523928,68.4832593 305.979336,68.4832593 C308.133884,68.4832593 309.434743,69.2149926 310.552669,70.190637 L311.24375,69.3979259 C309.820936,68.2190222 308.357469,67.5279407 306.040313,67.5279407 C301.792195,67.5279407 299.007543,71.0443259 299.007543,74.8859259 L299.007543,74.9265778 C299.007543,78.9307852 301.670239,82.2439111 306.162269,82.2439111 C308.479424,82.2439111 310.471365,81.2479407 311.751898,80.1096889 L311.751898,80.1096889 Z M327.402861,82 L327.402861,67.7718519 L326.386565,67.7718519 L326.386565,80.1503407 L316.569143,67.7718519 L315.573173,67.7718519 L315.573173,82 L316.589469,82 L316.589469,69.3572741 L326.61015,82 L327.402861,82 Z M341.854595,82 L341.854595,81.0243556 L332.687602,81.0243556 L332.687602,75.3127704 L340.838299,75.3127704 L340.838299,74.3371259 L332.687602,74.3371259 L332.687602,68.7474963 L341.752965,68.7474963 L341.752965,67.7718519 L331.630654,67.7718519 L331.630654,82 L341.854595,82 Z M356.834802,82 L352.139513,75.9225481 C354.537973,75.5973333 356.306328,74.2354963 356.306328,71.857363 L356.306328,71.8167111 C356.306328,69.4385778 354.294062,67.7718519 351.224847,67.7718519 L345.249024,67.7718519 L345.249024,82 L346.305973,82 L346.305973,76.1054815 L350.96061,76.1054815 L355.493291,82 L356.834802,82 Z M355.24938,71.8980148 C355.24938,73.9509333 353.481024,75.150163 351.102891,75.150163 L346.305973,75.150163 L346.305973,68.7474963 L351.163869,68.7474963 C353.745262,68.7474963 355.24938,69.9467259 355.24938,71.857363 L355.24938,71.8980148 Z" id="UX-&amp;-INTERACTION-DES" fill="#424242"></path>
            </g>
            <g id="Logo" sketch:type="MSShapeGroup">
                <ellipse id="Oval-1" stroke="#000000" stroke-width="4" fill="#FFFFFF" cx="52.6462396" cy="53" rx="52.6462396" ry="53"></ellipse>
                <g id="logo" transform="translate(15.041783, 15.142857)">
                    <path d="M20.3468507,10.7529027 C20.2915436,10.7529027 20.2362365,10.7281371 20.202298,10.6831088 C20.1482478,10.6121892 20.1696165,10.5142526 20.2500632,10.4669729 L37.3123134,0.235414811 C37.3915032,0.188135084 37.4996035,0.207272116 37.5536537,0.278191707 C37.6077038,0.350237005 37.5863351,0.447047875 37.5058884,0.49545331 L20.4436382,10.7258857 C20.4147277,10.743897 20.3807892,10.7529027 20.3468507,10.7529027 L20.3468507,10.7529027 Z M20.3468507,10.5964293 L37.4091009,0.365996914 L20.3468507,10.5964293 Z" id="Stroke-1" stroke="#000000" stroke-width="3"></path>
                    <path d="M0.314125219,52.3815782 C0.290907035,52.3815782 0.266398952,52.3781502 0.244470667,52.3690088 C0.152887829,52.3347287 0.110321158,52.2410296 0.149018132,52.1610425 L20.1863111,10.5312244 C20.2262979,10.4512373 20.3307798,10.4135292 20.4223626,10.4478093 C20.5126555,10.4820895 20.5552222,10.5757886 20.5165252,10.6557756 L0.479232307,52.2855938 C0.449564627,52.3461554 0.383779772,52.3815782 0.314125219,52.3815782 L0.314125219,52.3815782 Z" id="Fill-2" fill="#81833E"></path>
                    <path d="M0.314125219,52.3815782 C0.290907035,52.3815782 0.266398952,52.3781502 0.244470667,52.3690088 C0.152887829,52.3347287 0.110321158,52.2410296 0.149018132,52.1610425 L20.1863111,10.5312244 C20.2262979,10.4512373 20.3307798,10.4135292 20.4223626,10.4478093 C20.5126555,10.4820895 20.5552222,10.5757886 20.5165252,10.6557756 L0.479232307,52.2855938 C0.449564627,52.3461554 0.383779772,52.3815782 0.314125219,52.3815782 L0.314125219,52.3815782 Z" id="Stroke-3" stroke="#000000" stroke-width="3"></path>
                    <path d="M20.3514182,10.5940713 L0.314125219,52.2227468" id="Fill-4" fill="#81833E"></path>
                    <path d="M20.3514182,10.5940713 L0.314125219,52.2227468" id="Stroke-5" stroke="#000000" stroke-width="3"></path>
                    <path d="M37.8605088,75.6897971 C37.8243916,75.6897971 37.7882745,75.6795131 37.7573169,75.6600876 L0.21093329,52.3530114 C0.130959544,52.3027338 0.110321158,52.2033214 0.16707672,52.1324758 C0.223832281,52.0604874 0.336053504,52.0433474 0.417317149,52.0936249 L37.9637007,75.4007012 C38.0436745,75.4509787 38.063023,75.5503912 38.0062674,75.6212368 C37.9714401,75.665801 37.9159745,75.6897971 37.8605088,75.6897971 L37.8605088,75.6897971 Z M0.314125219,52.2227468 L37.8605088,75.5309657 L0.314125219,52.2227468 Z M26.2243289,22.6481159 C26.1662834,22.6481159 26.1082379,22.6229771 26.0747006,22.5761276 C26.0205248,22.5029966 26.0424531,22.4047268 26.1250066,22.3567346 L37.7573169,15.5921177 C37.8398704,15.5429828 37.9508018,15.5635509 38.0049775,15.6366819 C38.0591533,15.7098128 38.0359351,15.8092253 37.9533816,15.8572175 L26.3223612,22.6218344 C26.2914036,22.6389745 26.2578662,22.6481159 26.2243289,22.6481159 L26.2243289,22.6481159 Z M26.2243289,22.4892845 L37.8553492,15.7246676 L26.2243289,22.4892845 Z" id="Stroke-6" stroke="#000000" stroke-width="3"></path>
                    <path d="M13.2079568,49.6894435 C13.1847386,49.6894435 13.1602306,49.6860155 13.1370124,49.6768741 C13.0467194,49.6425939 13.0041528,49.5500375 13.0428497,49.4689078 L26.0592218,22.4275802 C26.0979187,22.3464505 26.2024006,22.3087424 26.2939834,22.3430225 C26.3855662,22.3773027 26.426843,22.4710018 26.388146,22.5509888 L13.3730639,49.5934591 C13.3433962,49.6540207 13.2776114,49.6894435 13.2079568,49.6894435 L13.2079568,49.6894435 Z" id="Fill-7" fill="#81833E"></path>
                    <path d="M13.2079568,49.6894435 C13.1847386,49.6894435 13.1602306,49.6860155 13.1370124,49.6768741 C13.0467194,49.6425939 13.0041528,49.5500375 13.0428497,49.4689078 L26.0592218,22.4275802 C26.0979187,22.3464505 26.2024006,22.3087424 26.2939834,22.3430225 C26.3855662,22.3773027 26.426843,22.4710018 26.388146,22.5509888 L13.3730639,49.5934591 C13.3433962,49.6540207 13.2776114,49.6894435 13.2079568,49.6894435 L13.2079568,49.6894435 Z" id="Stroke-8" stroke="#000000" stroke-width="3"></path>
                    <path d="M26.2243289,22.4892845 L13.2079568,49.5317548" id="Fill-9" fill="#81833E"></path>
                    <path d="M26.2243289,22.4892845 L13.2079568,49.5317548" id="Stroke-10" stroke="#000000" stroke-width="3"></path>
                    <path d="M37.8605088,64.8298445 C37.8243916,64.8298445 37.7895644,64.8218458 37.7586068,64.8024204 L13.1060548,49.6620194 C13.0247912,49.6117418 13.0041528,49.513472 13.0609083,49.4414837 C13.116374,49.3694954 13.2285952,49.3512126 13.3098589,49.4014902 L37.9624108,64.5418913 C38.0436745,64.5910261 38.0643129,64.6904386 38.0075573,64.7624269 C37.97273,64.8069911 37.9172644,64.8298445 37.8605088,64.8298445 L37.8605088,64.8298445 Z M13.2079568,49.5317548 L37.8605088,64.6721558 L13.2079568,49.5317548 Z M54.9669335,10.6980544 C54.9328166,10.6980544 54.8986998,10.6897256 54.8683737,10.673068 L38.0235022,1.26045966 C37.9438962,1.21569225 37.9224152,1.12615743 37.9767495,1.06056797 C38.0310837,0.993937405 38.1410157,0.977279764 38.2206217,1.02204717 L55.0654932,10.4336144 C55.1450992,10.4783818 55.1665801,10.5689577 55.1122459,10.6345472 C55.0781291,10.6761913 55.0225313,10.6980544 54.9669335,10.6980544 L54.9669335,10.6980544 Z M54.9632813,10.5392231 L37.7676361,0.209470187 L54.9632813,10.5392231 Z" id="Stroke-11" stroke="#000000" stroke-width="3"></path>
                    <path d="M75.0005742,52.32673 C74.9309196,52.32673 74.8651348,52.2913071 74.8354671,52.2307455 L54.7981742,10.60207 C54.7594772,10.5209403 54.8020439,10.4283839 54.8936267,10.3941037 C54.9839196,10.3598236 55.0896914,10.3963891 55.1283883,10.4775188 L75.1656813,52.1061943 C75.2043783,52.187324 75.1618116,52.2798804 75.0702287,52.3141606 C75.0483005,52.3233019 75.0237924,52.32673 75.0005742,52.32673 L75.0005742,52.32673 Z" id="Fill-12" fill="#81833E"></path>
                    <path d="M75.0005742,52.32673 C74.9309196,52.32673 74.8651348,52.2913071 74.8354671,52.2307455 L54.7981742,10.60207 C54.7594772,10.5209403 54.8020439,10.4283839 54.8936267,10.3941037 C54.9839196,10.3598236 55.0896914,10.3963891 55.1283883,10.4775188 L75.1656813,52.1061943 C75.2043783,52.187324 75.1618116,52.2798804 75.0702287,52.3141606 C75.0483005,52.3233019 75.0237924,52.32673 75.0005742,52.32673 L75.0005742,52.32673 Z" id="Stroke-13" stroke="#000000" stroke-width="3"></path>
                    <path d="M54.9632813,10.5392231 L75.0005742,52.1690412" id="Fill-14" fill="#81833E"></path>
                    <path d="M54.9632813,10.5392231 L75.0005742,52.1690412" id="Stroke-15" stroke="#000000" stroke-width="3"></path>
                    <path d="M37.7676361,75.6897971 C37.7121704,75.6897971 37.6567048,75.665801 37.6218775,75.6223795 C37.5651219,75.5515338 37.5831805,75.4521214 37.6644442,75.4018438 L74.8973823,52.0387767 C74.977356,51.9884991 75.0895772,52.0056392 75.1463328,52.0776275 C75.2030884,52.1484732 75.1850298,52.2478856 75.1037661,52.2981632 L37.870828,75.6600876 C37.8398704,75.6795131 37.8037533,75.6897971 37.7676361,75.6897971 L37.7676361,75.6897971 Z M75.0005742,52.1690412 L37.7676361,75.5309657 L75.0005742,52.1690412 Z M49.0903706,22.5932676 C49.0568332,22.5932676 49.0220059,22.5841263 48.9910483,22.5669862 L37.6631543,15.8560748 C37.5806007,15.8069399 37.5586724,15.7086702 37.6141381,15.6355392 C37.6683139,15.5635509 37.7792452,15.5429828 37.8617987,15.5921177 L49.1896928,22.303029 C49.2722463,22.3521639 49.2941746,22.4504337 49.2399989,22.5235647 C49.2051716,22.5681289 49.148416,22.5932676 49.0903706,22.5932676 L49.0903706,22.5932676 Z M49.0903706,22.4344363 L37.7624765,15.7246676 L49.0903706,22.4344363 Z" id="Stroke-16" stroke="#000000" stroke-width="3"></path>
                    <path d="M62.1067426,49.6357379 C62.037088,49.6357379 61.9713032,49.5991724 61.9429254,49.5386108 L48.9265534,22.4972832 C48.8878564,22.4161535 48.9291332,22.3235971 49.020716,22.2893169 C49.1110089,22.2550368 49.2167807,22.2916023 49.2554777,22.372732 L62.2718497,49.4140596 C62.3105466,49.4951893 62.26798,49.5877457 62.177687,49.6231685 C62.1544689,49.6311672 62.1299608,49.6357379 62.1067426,49.6357379 L62.1067426,49.6357379 Z" id="Fill-17" fill="#81833E"></path>
                    <path d="M62.1067426,49.6357379 C62.037088,49.6357379 61.9713032,49.5991724 61.9429254,49.5386108 L48.9265534,22.4972832 C48.8878564,22.4161535 48.9291332,22.3235971 49.020716,22.2893169 C49.1110089,22.2550368 49.2167807,22.2916023 49.2554777,22.372732 L62.2718497,49.4140596 C62.3105466,49.4951893 62.26798,49.5877457 62.177687,49.6231685 C62.1544689,49.6311672 62.1299608,49.6357379 62.1067426,49.6357379 L62.1067426,49.6357379 Z" id="Stroke-18" stroke="#000000" stroke-width="3"></path>
                    <path d="M49.0903706,22.4344363 L62.1067426,49.4769065" id="Fill-19" fill="#81833E"></path>
                    <path d="M49.0903706,22.4344363 L62.1067426,49.4769065" id="Stroke-20" stroke="#000000" stroke-width="3"></path>
                    <path d="M37.7676361,64.8298445 C37.7121704,64.8298445 37.6567048,64.8069911 37.6218775,64.7635696 C37.563832,64.6915813 37.5844704,64.5933115 37.6644442,64.5418913 L62.0035507,49.346642 C62.0848143,49.2963644 62.1957456,49.3135045 62.2537911,49.3854928 C62.3105466,49.4574811 62.2911982,49.5557509 62.2099345,49.6060285 L37.870828,64.8012777 C37.8398704,64.8207032 37.8037533,64.8298445 37.7676361,64.8298445 L37.7676361,64.8298445 Z M62.1067426,49.4769065 L37.7676361,64.6721558 L62.1067426,49.4769065 Z M10.3598596,31.5129635 C10.2992343,31.5129635 10.2411889,31.4866821 10.2076515,31.4386899 C10.1547656,31.3644162 10.1805636,31.2661464 10.2631171,31.2204396 L26.1288763,22.3555919 C26.2114299,22.3087424 26.3223612,22.3304531 26.3752471,22.4047268 C26.4281329,22.4790005 26.4023349,22.5761276 26.3197814,22.6229771 L10.4540222,31.4878248 C10.4243545,31.5049648 10.392107,31.5129635 10.3598596,31.5129635 L10.3598596,31.5129635 Z M26.2243289,22.4892845 L10.3585697,31.3541322 L26.2243289,22.4892845 Z M64.9819277,31.5666691 C64.9483904,31.5666691 64.914853,31.5586704 64.8851853,31.542673 L48.994918,22.5681289 C48.9110746,22.5212793 48.8865665,22.4230095 48.9394524,22.3498785 C48.9936281,22.2756049 49.1032696,22.2538941 49.187113,22.3007437 L65.0786702,31.2752878 C65.1612237,31.3221373 65.1857318,31.4204071 65.1328459,31.4935381 C65.0980186,31.5415303 65.0412631,31.5666691 64.9819277,31.5666691 L64.9819277,31.5666691 Z M49.0903706,22.4344363 L64.9819277,31.4089804 L49.0903706,22.4344363 Z M56.3834602,64.0356877 C56.3641117,64.0356877 56.3447632,64.0322596 56.3241248,64.0265463 C56.2312521,63.9979795 56.1822359,63.9065657 56.2157733,63.8242934 L61.9377658,49.4243436 C61.9713032,49.3420713 62.0732052,49.2986497 62.1660779,49.3272165 C62.2589507,49.356926 62.3079669,49.4471971 62.2757194,49.5294694 L56.552437,63.9294192 C56.526639,63.9945515 56.4582743,64.0356877 56.3834602,64.0356877 L56.3834602,64.0356877 Z M62.1067426,49.4769065 L56.3834602,63.8768563 L62.1067426,49.4769065 Z M19.087317,64.0082635 C19.0137928,64.0082635 18.9454281,63.96827 18.9196301,63.9042804 L13.03898,49.5854604 C13.0054427,49.503188 13.0531689,49.4117743 13.1460417,49.3820648 C13.2389144,49.3523553 13.3421063,49.3946342 13.3756437,49.4769065 L19.2550039,63.7957266 C19.2898312,63.877999 19.2421049,63.96827 19.1479423,63.9991222 C19.1285938,64.0048355 19.1079554,64.0082635 19.087317,64.0082635 L19.087317,64.0082635 Z M19.087317,63.8494322 L13.2079568,49.5317548 L19.087317,63.8494322 Z M32.0391941,18.7698879 C32.0004971,18.7698879 31.9618001,18.7596038 31.9295527,18.7367504 L20.2417767,10.7197652 C20.1643828,10.6660596 20.148904,10.5666472 20.2095293,10.4969442 C20.2701545,10.4272412 20.3823757,10.4146718 20.4610596,10.4683774 L32.1488355,18.4865053 C32.2275194,18.5402108 32.2417083,18.6396233 32.181083,18.7081836 C32.1462557,18.7493198 32.0933699,18.7698879 32.0391941,18.7698879 L32.0391941,18.7698879 Z M32.0391941,18.6110565 L20.3514182,10.5940713 L32.0391941,18.6110565 Z M43.4728599,19.2658074 C43.4212639,19.2658074 43.3709579,19.246382 43.3361306,19.2086738 C43.2716356,19.1423989 43.2819548,19.0418438 43.356769,18.9858528 L54.8471903,10.4180998 C54.9232944,10.3621089 55.0368055,10.3701076 55.1000106,10.4375253 C55.1632156,10.5049429 55.1541863,10.6043553 55.0780823,10.6603463 L43.5876609,19.2280993 C43.5541235,19.253238 43.5141367,19.2658074 43.4728599,19.2658074 L43.4728599,19.2658074 Z M43.4728599,19.106976 L54.9632813,10.5392231 L43.4728599,19.106976 Z" id="Stroke-21" stroke="#000000" stroke-width="3"></path>
                </g>
            </g>
        </g>
    </g>
</svg>